<?xml version="1.0" encoding="UTF-8"?>
<svg width="95px" height="40px" viewBox="0 0 95 40" version="1.1" xmlns="http://www.w3.org/2000/svg" xmlns:xlink="http://www.w3.org/1999/xlink">
    <!-- Generator: Sketch 47.1 (45422) - http://www.bohemiancoding.com/sketch -->
    <title>Artboard 5</title>
    <desc>Created with Sketch.</desc>
    <defs></defs>
    <g id="落地页" stroke="none" stroke-width="1" fill="none" fill-rule="evenodd">
        <g id="Artboard-5" fill="#FFFFFF">
            <g id="Group" transform="translate(1.000000, 1.000000)">
                <path d="M32.4578437,29.1463474 C32.4578437,29.1463474 18.3220505,37.3145087 17.4029983,37.8262751 C16.4923387,38.2171561 15.883673,37.8262751 15.883673,37.8262751 C15.883673,37.8262751 1.0925733,29.2479572 0.552698901,28.8708444 C0.0126870011,28.4937316 0.000167001146,27.9063774 0.000167001146,27.9063774 C0.000167001146,27.9063774 0.0150259011,10.9199174 0.000167001146,10.1333364 C-0.0146919989,9.34661771 0.966960301,8.75554611 0.966960301,8.75554611 L15.74554,0.213438711 C16.6553741,-0.266798389 17.5411313,0.213438711 17.5411313,0.213438711 C17.5411313,0.213438711 30.5966257,7.80209371 32.0434447,8.61772571 C33.4615097,9.29195771 33.2865047,10.6843424 33.2865047,10.6843424 C33.2865047,10.6843424 33.2953097,25.7519192 33.2865047,27.2175511 C33.2770107,28.7945682 32.4578437,29.1463474 32.4578437,29.1463474 Z M27.3860132,10.1691339 C24.36002,8.42744831 17.2315869,4.29710631 17.2315869,4.29710631 C17.2315869,4.29710631 16.5361066,3.92123261 15.8217774,4.29710631 L4.2187433,10.98215 C4.2187433,10.98215 3.4480052,11.4449014 3.4596997,12.0604805 C3.4713942,12.6760597 3.4596997,25.9698708 3.4596997,25.9698708 C3.4596997,25.9698708 3.4694681,26.4295932 3.8934978,26.7246472 C4.31739,27.0197011 15.9301925,33.7332451 15.9301925,33.7332451 C15.9301925,33.7332451 16.4081547,34.0391759 17.1230342,33.7332451 C17.8446553,33.3327262 28.9430362,26.9402582 28.9430362,26.9402582 C28.9430362,26.9402582 29.5862352,26.6648929 29.5936646,25.4307056 C29.5957284,25.0747959 29.5965539,23.6932881 29.5966914,21.9575229 L17.5277646,29.270677 L17.5277646,29.270677 C16.911232,29.6442643 16.1413568,29.6571515 15.512666,29.3044083 L3.45417756,22.5386831 L3.4596997,17.9467333 L15.5056595,24.8441467 L15.5056595,24.8441467 C16.1376534,25.206021 16.9163968,25.1957612 17.5386377,24.8173625 L29.0507634,17.8165793 C29.4869005,17.3611251 29.5768795,16.6315447 29.5954532,16.3556287 C29.5950405,15.0904627 29.5944901,13.9852841 29.5940774,13.2851678 L17.5720189,20.7347234 L17.5720189,20.7347234 C16.932642,21.1309179 16.1250387,21.1348745 15.4818105,20.7449639 L3.44604449,13.44915 L3.44604449,12.0604805 C3.46378395,11.8621457 3.53060993,11.6729954 3.64652242,11.4930296 C3.76243491,11.3130638 3.95317521,11.1427706 4.2187433,10.98215 L5.25713137,10.3750124 L15.5062731,16.2031149 L15.5062731,16.2031149 C16.1380897,16.562393 16.9150852,16.5506229 17.5357295,16.1723723 L27.3860132,10.1691339 Z" id="Shape-Copy-Copy" fill-rule="nonzero"></path>
                <path d="M55.90875,12.625 L51.44,12.625 L51.44,12.625 C50.8877153,12.625 50.44,13.0727153 50.44,13.625 L50.44,28.21875 L50.44,28.21875 C50.44,28.7710347 49.9922848,29.21875 49.44,29.21875 L48.2525,29.21875 L48.2525,29.21875 C47.7002153,29.21875 47.2525,28.7710347 47.2525,28.21875 L47.2525,13.625 L47.2525,13.625 C47.2525,13.0727153 46.8047848,12.625 46.2525,12.625 L41.69,12.625 L41.69,12.625 C41.1377153,12.625 40.69,12.1772847 40.69,11.625 L40.69,10.8125 L40.69,10.8125 C40.69,10.2602153 41.1377153,9.8125 41.69,9.8125 L55.90875,9.8125 L55.90875,9.8125 C56.4610348,9.8125 56.90875,10.2602153 56.90875,10.8125 L56.90875,11.625 L56.90875,11.625 C56.90875,12.1772847 56.4610348,12.625 55.90875,12.625 Z M73.2925,12.625 L68.82375,12.625 L68.82375,12.625 C68.2714653,12.625 67.82375,13.0727153 67.82375,13.625 L67.82375,28.21875 L67.82375,28.21875 C67.82375,28.7710347 67.3760348,29.21875 66.82375,29.21875 L65.63625,29.21875 L65.63625,29.21875 C65.0839653,29.21875 64.63625,28.7710347 64.63625,28.21875 L64.63625,13.625 L64.63625,13.625 C64.63625,13.0727153 64.1885348,12.625 63.63625,12.625 L59.07375,12.625 L59.07375,12.625 C58.5214653,12.625 58.07375,12.1772847 58.07375,11.625 L58.07375,10.8125 L58.07375,10.8125 C58.07375,10.2602153 58.5214653,9.8125 59.07375,9.8125 L73.2925,9.8125 L73.2925,9.8125 C73.8447848,9.8125 74.2925,10.2602153 74.2925,10.8125 L74.2925,11.625 L74.2925,11.625 C74.2925,12.1772847 73.8447848,12.625 73.2925,12.625 Z M89.314316,28.8054467 L83.6453697,20.9807039 L83.6453697,20.9807039 C83.321346,20.53346 82.6961101,20.4335702 82.2488662,20.7575939 C82.2060794,20.7885925 82.1658167,20.8229333 82.1284561,20.8602939 L80.1566432,22.8321068 L80.1566432,22.8321068 C79.9691068,23.0196432 79.86375,23.2739971 79.86375,23.5392136 L79.86375,28.21875 L79.86375,28.21875 C79.86375,28.7710347 79.4160347,29.21875 78.86375,29.21875 L77.5825,29.21875 L77.5825,29.21875 C77.0302152,29.21875 76.5825,28.7710347 76.5825,28.21875 L76.5825,10.8125 L76.5825,10.8125 C76.5825,10.2602153 77.0302152,9.8125 77.5825,9.8125 L78.86375,9.8125 L78.86375,9.8125 C79.4160347,9.8125 79.86375,10.2602153 79.86375,10.8125 L79.86375,16.5857864 L79.86375,16.5857864 C79.86375,17.1380712 80.3114652,17.5857864 80.86375,17.5857864 C81.1289665,17.5857864 81.3833204,17.4804296 81.5708568,17.2928932 L88.7583568,10.1053932 L88.7583568,10.1053932 C88.9458932,9.91785684 89.2002471,9.8125 89.4654636,9.8125 L91.30125,9.8125 L91.30125,9.8125 C91.803675,9.8125 92.2109709,10.2197959 92.2109709,10.7222209 C92.2109709,10.968841 92.1108431,11.2048933 91.9335262,11.3762997 L85.7616279,17.3424681 L85.7616279,17.3424681 C85.3934259,17.6983966 85.3536225,18.2749702 85.6694219,18.6781184 L92.6598648,27.602088 L92.6598648,27.602088 C93.0004378,28.0368621 92.9240728,28.665405 92.4892987,29.0059781 C92.313307,29.1438383 92.0961955,29.21875 91.8726367,29.21875 L90.1241227,29.21875 L90.1241227,29.21875 C89.8035436,29.21875 89.5023987,29.0650539 89.314316,28.8054467 Z" id="TTK"></path>
            </g>
        </g>
    </g>
</svg>